<svg xmlns="http://www.w3.org/2000/svg" viewBox="0 0 24 24" fill="#5865F2" aria-hidden="true">
  <path d="M20.317 4.369A19.79 19.79 0 0 0 15.432 3a13.6 13.6 0 0 0-.617 1.27 18.27 18.27 0 0 0-5.63 0A13.2 13.2 0 0 0 8.56 3a19.74 19.74 0 0 0-4.885 1.37C1.578 8.06.95 11.66 1.264 15.205a19.9 19.9 0 0 0 6.063 3.075c.49-.67.926-1.382 1.3-2.13a12.94 12.94 0 0 1-2.05-.99c.172-.126.34-.257.503-.39a14.21 14.21 0 0 0 12.04 0c.165.14.333.27.503.39-.654.388-1.34.72-2.052.99.374.748.81 1.46 1.3 2.13a19.86 19.86 0 0 0 6.064-3.075c.37-4.115-.63-7.683-2.625-10.836ZM8.02 13.0c-1.18 0-2.156-1.085-2.156-2.42 0-1.334.955-2.42 2.156-2.42 1.21 0 2.176 1.095 2.155 2.42 0 1.335-.955 2.42-2.155 2.42Zm7.96 0c-1.18 0-2.156-1.085-2.156-2.42 0-1.334.955-2.42 2.156-2.42 1.21 0 2.176 1.095 2.155 2.42 0 1.335-.945 2.42-2.155 2.42Z"/>
</svg>
