<svg xmlns="http://www.w3.org/2000/svg" viewBox="0 0 48 48" fill="none" aria-hidden="true">
  <circle cx="24" cy="24" r="22" fill="#25D366"/>
  <path fill="#fff" d="M33.1 14.7A12.6 12.6 0 0 0 11.7 28l-1.8 6.7 6.8-1.8a12.6 12.6 0 0 0 6.1 1.6h.1A12.6 12.6 0 0 0 33.1 14.7Zm-10.2 17.6h-.1a10.4 10.4 0 0 1-5.3-1.5l-.4-.2-4 .9 1.1-3.9-.3-.4a10.3 10.3 0 1 1 9 5.1Z"/>
  <path fill="#fff" d="M28.6 25.1c-.3-.2-1.8-.9-2.1-1-.3-.1-.5-.2-.7.2-.2.3-.8 1-.9 1.2-.2.2-.3.2-.6.1-.3-.2-1.2-.4-2.3-1.4-.9-.8-1.5-1.7-1.6-2-.2-.3 0-.5.1-.6l.5-.6c.1-.2.2-.3.3-.5.1-.2.1-.4 0-.6 0-.2-.7-1.7-1-2.3-.3-.6-.5-.5-.7-.5h-.6c-.2 0-.6.1-.9.4-.3.3-1.2 1.2-1.2 2.9s1.2 3.3 1.4 3.6c.2.2 2.4 3.7 5.9 5.1.8.4 1.5.6 2 .7.8.3 1.6.2 2.2.1.7-.1 1.8-.8 2.1-1.5.3-.7.3-1.3.2-1.5-.1-.1-.3-.2-.6-.4Z"/>
</svg>
